<?xml version="1.0" standalone="no"?>
<!DOCTYPE svg PUBLIC "-//W3C//DTD SVG 20010904//EN"
 "http://www.w3.org/TR/2001/REC-SVG-20010904/DTD/svg10.dtd">
<svg version="1.0" xmlns="http://www.w3.org/2000/svg"
 width="1099.000000pt" height="1099.000000pt" viewBox="0 0 1099.000000 1099.000000"
 preserveAspectRatio="xMidYMid meet">
<metadata>
Created by potrace 1.14, written by Peter Selinger 2001-2017
</metadata>
<g transform="translate(0.000000,1099.000000) scale(0.100000,-0.100000)"
fill="#000000" stroke="none">
<path d="M5148 10895 c-2 -2 -46 -6 -98 -10 -52 -3 -108 -8 -125 -10 -16 -1
-57 -6 -90 -9 -33 -4 -71 -9 -85 -11 -14 -3 -45 -7 -70 -10 -25 -3 -52 -8 -60
-10 -8 -3 -33 -7 -55 -10 -141 -17 -512 -107 -685 -165 -30 -10 -71 -23 -90
-28 -19 -6 -58 -19 -87 -30 -28 -11 -54 -17 -57 -14 -3 3 -6 0 -6 -6 0 -7 -8
-12 -18 -12 -10 0 -22 -3 -26 -7 -3 -4 -12 -8 -19 -9 -35 -7 -280 -115 -447
-198 -190 -94 -521 -286 -528 -307 -2 -5 -8 -9 -14 -9 -12 0 -141 -90 -146
-102 -2 -4 -8 -8 -14 -8 -8 0 -122 -82 -138 -100 -3 -3 -23 -18 -45 -35 -51
-37 -63 -47 -83 -65 -10 -8 -33 -28 -52 -44 -111 -91 -190 -166 -420 -396
-243 -245 -351 -359 -401 -425 -13 -16 -30 -37 -39 -45 -9 -8 -31 -35 -50 -60
-19 -25 -39 -50 -45 -57 -23 -28 -35 -44 -123 -165 -51 -70 -92 -130 -92 -133
0 -6 -39 -64 -50 -75 -3 -3 -10 -14 -17 -25 -22 -36 -127 -207 -150 -244 -13
-20 -31 -52 -40 -71 -10 -19 -21 -37 -24 -40 -4 -3 -9 -15 -13 -27 -4 -13 -13
-29 -19 -35 -23 -24 -254 -528 -271 -593 -2 -5 -5 -17 -8 -25 -3 -8 -16 -44
-28 -80 -12 -36 -26 -74 -30 -85 -30 -72 -128 -399 -145 -485 -2 -8 -8 -35
-15 -60 -7 -25 -14 -56 -16 -70 -3 -14 -12 -60 -20 -103 -9 -44 -17 -91 -19
-105 -2 -15 -6 -43 -10 -62 -3 -19 -8 -53 -11 -75 -2 -22 -6 -53 -9 -70 -2
-16 -7 -57 -10 -90 -3 -33 -8 -80 -11 -105 -18 -173 -25 -672 -11 -850 11
-135 18 -213 22 -236 2 -12 7 -48 10 -80 4 -33 9 -68 11 -79 3 -11 7 -36 10
-55 2 -19 10 -59 15 -89 6 -30 13 -64 14 -75 12 -79 83 -385 104 -446 5 -14
17 -52 26 -85 45 -162 151 -439 262 -685 42 -92 127 -265 134 -270 3 -3 12
-22 20 -42 7 -21 17 -38 21 -38 4 0 8 -4 8 -9 0 -9 162 -297 204 -361 113
-175 160 -246 168 -248 4 -2 8 -8 8 -13 0 -5 21 -37 47 -71 26 -35 51 -67 55
-73 29 -39 154 -193 167 -206 9 -9 36 -41 61 -70 51 -60 277 -289 361 -364
105 -94 207 -179 284 -236 33 -24 62 -46 65 -49 3 -3 43 -33 90 -65 47 -33 87
-63 88 -67 2 -4 8 -8 14 -8 5 0 47 -24 91 -53 45 -30 98 -62 117 -73 19 -10
37 -21 40 -24 3 -3 21 -13 40 -24 19 -10 51 -28 70 -39 137 -79 416 -207 625
-287 11 -4 38 -15 60 -23 33 -13 135 -47 155 -52 3 -1 12 -4 20 -8 8 -3 62
-20 120 -37 58 -17 114 -35 125 -39 11 -5 38 -14 60 -20 22 -6 69 -19 105 -30
63 -19 110 -30 120 -30 3 0 18 -4 33 -10 15 -6 40 -13 55 -16 15 -2 52 -11 82
-19 30 -8 78 -18 105 -22 55 -9 64 -11 68 -14 3 -3 37 -9 82 -15 22 -3 51 -7
65 -9 26 -5 101 -15 160 -21 19 -2 58 -7 85 -10 28 -3 77 -8 110 -11 33 -2 92
-7 130 -10 127 -11 665 -13 665 -3 0 6 7 6 19 0 10 -6 20 -8 23 -6 2 2 38 7
80 10 43 3 99 8 125 10 49 4 129 13 173 20 14 2 48 7 75 11 28 3 59 8 70 11
11 2 34 6 50 7 17 2 89 16 160 31 72 15 138 28 148 30 10 2 26 6 35 9 9 3 28
7 42 10 14 3 68 17 120 31 119 32 126 34 148 39 98 24 548 187 617 224 17 9
35 17 40 18 6 1 44 18 85 38 41 21 76 37 78 37 3 -1 112 53 177 89 28 15 86
46 130 70 44 24 82 46 85 50 3 3 32 21 65 39 113 63 399 259 560 383 67 52
150 123 153 130 2 4 8 8 12 8 5 0 20 10 32 23 30 28 110 99 178 157 75 63 147
127 200 174 78 72 323 321 375 381 28 32 60 69 72 81 13 13 23 26 23 29 0 3 8
13 18 23 96 101 372 484 434 604 11 21 23 38 27 38 3 0 12 15 20 32 8 18 26
51 39 73 33 52 179 341 216 425 16 36 36 83 46 105 10 22 27 67 39 100 13 33
26 64 31 70 5 5 8 12 8 15 -1 3 21 70 47 150 26 80 49 152 51 160 2 8 11 42
20 75 9 33 17 65 19 70 1 6 5 17 8 25 3 8 8 29 11 45 4 17 8 39 11 50 13 52
43 202 54 270 49 288 65 483 65 800 0 189 -8 397 -19 485 -1 14 -6 50 -9 80
-4 30 -9 71 -12 90 -2 19 -6 49 -8 65 -3 17 -10 62 -16 100 -7 39 -14 79 -15
90 -6 36 -24 120 -45 210 -6 28 -13 57 -15 66 -21 100 -130 466 -165 554 -40
98 -94 241 -94 245 0 3 -15 39 -34 80 -18 41 -41 91 -49 110 -73 165 -221 443
-329 620 -22 36 -47 76 -55 89 -8 14 -21 33 -30 43 -9 10 -22 31 -30 46 -8 15
-17 29 -20 32 -3 3 -25 34 -49 70 -64 96 -300 404 -330 430 -3 3 -32 36 -65
74 -106 123 -224 245 -429 441 -34 32 -156 139 -195 171 -13 10 -28 24 -35 29
-67 63 -408 316 -484 360 -9 6 -19 13 -22 16 -10 11 -283 177 -390 236 -151
84 -562 277 -610 287 -3 1 -10 4 -15 8 -13 8 -143 58 -165 63 -17 5 -126 43
-155 55 -11 4 -54 18 -95 30 -41 12 -86 26 -100 31 -14 5 -34 10 -45 12 -11 2
-27 7 -35 10 -18 6 -254 64 -290 71 -23 4 -99 19 -110 21 -3 1 -25 5 -50 9
-25 4 -52 9 -60 10 -8 2 -31 6 -50 9 -19 4 -52 9 -72 12 -21 3 -53 7 -70 10
-51 7 -159 18 -292 30 -33 4 -63 8 -67 11 -4 2 -10 0 -14 -6 -4 -6 -13 -7 -23
-1 -15 8 -566 14 -574 6z"/>
</g>
</svg>
